<svg width="40" height="40" viewBox="0 0 40 40" fill="none" xmlns="http://www.w3.org/2000/svg">
<path fill-rule="evenodd" clip-rule="evenodd" d="M28.3775 2.72762C30.5598 3.17197 32.5625 4.25015 34.135 5.8272C35.4645 7.1681 36.4412 8.81743 36.9777 10.6279C37.5143 12.4383 37.5941 14.3534 37.21 16.2022C36.6535 18.7368 35.2531 21.0074 33.238 22.6424C31.2228 24.2774 28.7124 25.1799 26.1175 25.2022C25.0227 25.204 23.9335 25.0448 22.885 24.7297L20.885 27.0722L19.9375 27.5097H17.5V31.2597L16.25 32.5097H12.5V36.2597L11.25 37.5097H3.75001L2.50001 36.2597V30.4922L2.86501 29.6097L15.3 17.1772C14.9471 16.0405 14.7783 14.8547 14.8 13.6647C14.8306 11.4379 15.5173 9.26949 16.7742 7.43105C18.0312 5.5926 19.8025 4.16576 21.8664 3.32914C23.9304 2.49252 26.1952 2.28328 28.3775 2.72762ZM31.6733 20.7265C33.2433 19.4549 34.3352 17.6878 34.77 15.7147L34.78 15.7272C35.0888 14.2846 35.0323 12.7876 34.6157 11.3724C34.1991 9.9571 33.4356 8.66829 32.3945 7.62298C31.3534 6.57767 30.0677 5.80895 28.6541 5.38664C27.2406 4.96433 25.7439 4.90179 24.3 5.2047C22.352 5.63707 20.6046 6.70875 19.3361 8.2491C18.0675 9.78944 17.3508 11.7099 17.3 13.7047C17.273 14.842 17.4762 15.973 17.8975 17.0297L17.6225 18.3847L5.00001 31.0097V35.0097H10V31.2597L11.25 30.0097H15V26.2597L16.25 25.0097H19.3625L21.5525 22.4697L22.955 22.1197C23.966 22.5148 25.0421 22.7166 26.1275 22.7147C28.1479 22.6992 30.1032 21.9982 31.6733 20.7265ZM29.5787 13.8987C29.8534 13.4876 30 13.0042 30 12.5098C30 11.8467 29.7366 11.2108 29.2678 10.742C28.7989 10.2732 28.163 10.0098 27.5 10.0098C27.0055 10.0098 26.5222 10.1564 26.1111 10.4311C25.6999 10.7058 25.3795 11.0962 25.1903 11.5531C25.0011 12.0099 24.9516 12.5125 25.048 12.9975C25.1445 13.4824 25.3826 13.9279 25.7322 14.2775C26.0819 14.6272 26.5273 14.8653 27.0123 14.9617C27.4972 15.0582 27.9999 15.0087 28.4567 14.8195C28.9135 14.6303 29.304 14.3098 29.5787 13.8987Z" fill="#424242"/>
</svg>
