<svg width="50" height="50" viewBox="0 0 50 50" fill="none" xmlns="http://www.w3.org/2000/svg">
<path fill-rule="evenodd" clip-rule="evenodd" d="M42.3077 28.2143C42.6923 30.3571 43.0769 32.1429 43.8462 34.2857L46.1538 40.3571L44.2308 42.8571H30.7692C30.7692 44.6429 30 46.4286 28.4615 47.8571C26.9231 49.2857 25 50 23.0769 50C21.1538 50 18.8462 49.2857 17.6923 47.8571C16.1538 46.4286 15.3846 44.6429 15.3846 42.8571H1.92308L0 40.3571L2.30769 34.2857C3.07692 31.4286 3.84615 28.5714 3.84615 25.7143V17.8571C3.84615 15.3571 4.23077 12.8571 5.38462 10.7143C6.53846 8.21429 8.07692 6.42857 10 4.64286C11.9231 2.85714 14.2308 1.78571 16.9231 1.07143C18.8462 0.357143 21.1538 0 23.0769 0C22.3077 1.07143 21.5385 2.5 20.7692 3.92857C20 3.92857 19.2308 3.92857 18.0769 4.64286C16.1538 5 14.2308 6.07143 12.6923 7.5C11.1538 8.57143 9.61539 10.3571 8.84615 12.1429C8.07692 13.9286 7.69231 15.7143 7.69231 17.8571V25.7143C7.69231 28.9286 6.92308 32.1429 6.15385 35.3571L4.61539 39.2857H41.5385L40 35.3571C39.3255 33.4781 38.9467 31.3244 38.6043 29.3777C38.5562 29.1044 38.5089 28.8352 38.4615 28.5714C40 28.5714 41.1538 28.5714 42.3077 28.2143ZM23.0769 46.4286C23.8462 46.4286 25 46.0714 25.7692 45.3571C26.5385 44.6429 26.9231 43.9286 26.9231 42.8571H19.2308C19.2308 43.9286 19.6154 44.6429 20.3846 45.3571C21.1538 46.0714 22.3077 46.4286 23.0769 46.4286ZM50 10.7143C50 16.6316 44.8341 21.4286 38.4615 21.4286C32.089 21.4286 26.9231 16.6316 26.9231 10.7143C26.9231 4.79695 32.089 0 38.4615 0C44.8341 0 50 4.79695 50 10.7143Z" fill="white"/>
</svg>
